<svg width="24" height="25" viewBox="0 0 24 25" fill="none" xmlns="http://www.w3.org/2000/svg">
<path d="M8 10.6699V8.66992H6V13.1699C6 13.446 5.77614 13.6699 5.5 13.6699C5.22386 13.6699 5 13.446 5 13.1699V7.66992H8C8 5.2662 9.95227 3.66992 12 3.66992C14.0575 3.66992 16 5.37548 16 7.66992H19V20.1699C19 20.9983 18.3284 21.6699 17.5 21.6699H12.5C12.2239 21.6699 12 21.446 12 21.1699C12 20.8938 12.2239 20.6699 12.5 20.6699H17.5C17.7761 20.6699 18 20.446 18 20.1699V8.66992H16V10.6699H15V8.66992H9V10.6699H8ZM12 4.66992C10.4477 4.66992 9 5.87364 9 7.66992H15C15 5.96436 13.5425 4.66992 12 4.66992Z" fill="#1F2026"/>
<path d="M7.5 14.6699C7.77614 14.6699 8 14.8938 8 15.1699V17.6699H10.5C10.7761 17.6699 11 17.8938 11 18.1699C11 18.446 10.7761 18.6699 10.5 18.6699H8V21.1699C8 21.446 7.77614 21.6699 7.5 21.6699C7.22386 21.6699 7 21.446 7 21.1699V18.6699H4.5C4.22386 18.6699 4 18.446 4 18.1699C4 17.8938 4.22386 17.6699 4.5 17.6699H7V15.1699C7 14.8938 7.22386 14.6699 7.5 14.6699Z" fill="#1F2026"/>
</svg>
